<svg width="25" height="31" viewBox="0 0 25 31" fill="none" xmlns="http://www.w3.org/2000/svg">
<path d="M20.7685 16.3244C20.7833 15.2024 21.0885 14.1023 21.6559 13.1264C22.2232 12.1506 23.0341 11.3306 24.0132 10.743C23.3912 9.87569 22.5707 9.16197 21.6167 8.65847C20.6628 8.15498 19.6017 7.87558 18.5178 7.84247C16.2056 7.60552 13.9641 9.19323 12.7859 9.19323C11.5848 9.19323 9.77078 7.86599 7.81731 7.90523C6.55377 7.94508 5.32234 8.30381 4.24302 8.94644C3.1637 9.58908 2.27329 10.4937 1.65855 11.5722C-1.00432 16.0734 0.981943 22.6886 3.53279 26.327C4.80904 28.1086 6.3006 30.0987 8.2523 30.0282C10.1621 29.9508 10.8754 28.8392 13.1808 28.8392C15.4647 28.8392 16.1339 30.0282 18.1252 29.9833C20.1746 29.9508 21.4658 28.1938 22.6973 26.3953C23.6143 25.1258 24.3199 23.7228 24.788 22.2381C23.5974 21.7465 22.5813 20.9235 21.8665 19.8719C21.1518 18.8203 20.7699 17.5865 20.7685 16.3244Z" fill="white"/>
<path d="M17.0073 5.45014C18.1247 4.14055 18.6752 2.45728 18.5419 0.757812C16.8348 0.932862 15.2579 1.72942 14.1254 2.98877C13.5717 3.60399 13.1476 4.31973 12.8774 5.09506C12.6071 5.87039 12.4961 6.69012 12.5506 7.50737C13.4045 7.51596 14.2492 7.33527 15.0212 6.97892C15.7931 6.62257 16.4722 6.09986 17.0073 5.45014Z" fill="white"/>
</svg>
