<svg width="382" height="184" viewBox="0 0 382 184" fill="none" xmlns="http://www.w3.org/2000/svg">
<path d="M381.123 1.26051C381.532 1.32811 381.808 1.71421 381.741 2.12287L380.639 8.78238C380.572 9.19103 380.185 9.46751 379.777 9.39991C379.368 9.33234 379.092 8.94624 379.159 8.53759L380.138 2.61802L374.219 1.63883C373.81 1.57123 373.534 1.18517 373.601 0.776513C373.669 0.367847 374.055 0.0913498 374.464 0.158951L381.123 1.26051ZM3.17143 10.5795C0.71782 33.644 4.5908 61.0419 12.6465 87.1308C20.7018 113.218 32.9192 137.932 47.0978 155.636C61.3075 173.379 77.326 183.894 92.983 182.06C108.615 180.229 124.333 166.028 137.807 133.215L139.195 133.785C125.669 166.722 109.644 181.619 93.1575 183.55C76.6957 185.478 60.2198 174.42 45.9269 156.573C31.6029 138.687 19.3094 113.793 11.2133 87.5733C3.1176 61.355 -0.801466 33.7457 1.67985 10.4209L3.17143 10.5795ZM137.807 133.215C151.353 100.228 169.036 78.5371 189.046 63.806C209.049 49.0805 231.331 41.3439 254.018 36.1947C265.36 33.6203 276.814 31.6906 288.137 29.8604C299.467 28.0291 310.659 26.2983 321.512 24.119C343.22 19.7602 363.483 13.6232 380.564 1.3907L381.437 2.61023C364.097 15.0286 343.585 21.217 321.808 25.5896C310.919 27.776 299.69 29.5124 288.376 31.3412C277.055 33.1711 265.642 35.0945 254.35 37.6575C231.767 42.783 209.707 50.4585 189.936 65.014C170.172 79.5638 152.648 101.022 139.195 133.785L137.807 133.215Z" fill="url(#paint0_linear_53_821)"/>
<defs>
<linearGradient id="paint0_linear_53_821" x1="337" y1="214" x2="-15.3279" y2="54.1213" gradientUnits="userSpaceOnUse">
<stop offset="0.675281"/>
<stop offset="1" stop-color="white"/>
</linearGradient>
</defs>
</svg>
