<svg width="27" height="31" viewBox="0 0 27 31" fill="none" xmlns="http://www.w3.org/2000/svg">
<path d="M12.7168 14.7373L0.867188 27.5981C0.8683 27.6004 0.8683 27.6038 0.869413 27.6061C1.23335 29.0025 2.47986 30.0303 3.96009 30.0303C4.55218 30.0303 5.10754 29.8664 5.58389 29.5796L5.62173 29.5568L18.9594 21.6867L12.7168 14.7373Z" fill="#EA4335"/>
<path d="M24.7042 12.5476L24.6931 12.5396L18.9347 9.12636L12.4473 15.0298L18.958 21.6855L24.6853 18.3065C25.6892 17.7511 26.3714 16.6687 26.3714 15.4213C26.3714 14.1808 25.6992 13.1041 24.7042 12.5476Z" fill="#FBBC04"/>
<path d="M0.866882 3.18882C0.795653 3.45742 0.757812 3.73968 0.757812 4.03103V26.7571C0.757812 27.0484 0.795653 27.3307 0.867995 27.5981L13.1238 15.0663L0.866882 3.18882Z" fill="#4285F4"/>
<path d="M12.8042 15.394L18.9366 9.12412L5.61456 1.22555C5.13043 0.928502 4.56504 0.757784 3.96071 0.757784C2.48048 0.757784 1.23175 1.78778 0.867812 3.1854C0.867812 3.18654 0.866699 3.18768 0.866699 3.18881L12.8042 15.394Z" fill="#34A853"/>
</svg>
